<svg width="20" height="20" viewBox="0 0 20 20" fill="none" xmlns="http://www.w3.org/2000/svg">
<path d="M10 0C4.48602 0 0 4.48602 0 10C0 15.514 4.48602 20 10 20C15.514 20 20 15.514 20 10C20 4.48602 15.514 0 10 0ZM11.0689 15.1029V16.7937H8.93277V15.2393C8.13976 15.139 7.39711 14.874 6.88169 14.5046L6.5188 14.2455L7.2841 12.1029L7.91253 12.5157C8.44 12.8622 9.12747 13.0692 9.75205 13.0692C10.4742 13.0692 10.96 12.7113 10.96 12.1783C10.96 11.8104 10.7976 11.4039 9.61952 10.926C8.20386 10.3716 6.75494 9.55928 6.75494 7.74626C6.75494 6.35904 7.62169 5.25301 9.02361 4.84024V3.20699H11.1595V4.72241C11.7655 4.80554 12.3111 4.98867 12.826 5.28048L13.267 5.5306L12.4631 7.65084L11.8622 7.30675C11.5855 7.14892 11.0723 6.85542 10.2506 6.85542C9.33687 6.85542 9.23831 7.36217 9.23831 7.57976C9.23831 7.90289 9.34386 8.16 10.754 8.75976C12.0904 9.30434 13.4583 10.1231 13.4583 12.0573C13.4583 13.4983 12.5241 14.6846 11.0689 15.1029Z" fill="#FFD836"/>
</svg>
